<svg version="1.1" viewBox="0.0 0.0 960.0 540.0" fill="none" stroke="none" stroke-linecap="square" stroke-miterlimit="10" xmlns:xlink="http://www.w3.org/1999/xlink" xmlns="http://www.w3.org/2000/svg"><clipPath id="p.0"><path d="m0 0l960.0 0l0 540.0l-960.0 0l0 -540.0z" clip-rule="nonzero"/></clipPath><g clip-path="url(#p.0)"><path fill="#ffffff" d="m0 0l960.0 0l0 540.0l-960.0 0z" fill-rule="evenodd"/><path fill="#eeeeee" d="m148.43985 256.54544l42.566345 0l0 10.763641l-42.566345 0zm0 16.145477l42.566345 0l0 10.763641l-42.566345 0z" fill-rule="evenodd"/><path stroke="#595959" stroke-width="1.0" stroke-linejoin="round" stroke-linecap="butt" d="m148.43985 256.54544l42.566345 0l0 10.763641l-42.566345 0zm0 16.145477l42.566345 0l0 10.763641l-42.566345 0z" fill-rule="evenodd"/><path fill="#eeeeee" d="m374.5498 270.0l0 0c0 -1.9743042 1.4806213 -3.5747986 3.3070679 -3.5747986l0 0c0.8771057 0 1.7182617 0.37661743 2.3384705 1.0470276c0.62020874 0.67041016 0.9686279 1.5796814 0.9686279 2.527771l0 0c0 1.9743042 -1.4806213 3.5747986 -3.3070984 3.5747986l0 0c-1.8264465 0 -3.3070679 -1.6004944 -3.3070679 -3.5747986z" fill-rule="evenodd"/><path stroke="#595959" stroke-width="1.0" stroke-linejoin="round" stroke-linecap="butt" d="m374.5498 270.0l0 0c0 -1.9743042 1.4806213 -3.5747986 3.3070679 -3.5747986l0 0c0.8771057 0 1.7182617 0.37661743 2.3384705 1.0470276c0.62020874 0.67041016 0.9686279 1.5796814 0.9686279 2.527771l0 0c0 1.9743042 -1.4806213 3.5747986 -3.3070984 3.5747986l0 0c-1.8264465 0 -3.3070679 -1.6004944 -3.3070679 -3.5747986z" fill-rule="evenodd"/><path fill="#a4c2f4" d="m80.36344 6.4330707l43.590553 0l0 526.1103l-43.590553 0z" fill-rule="evenodd"/><path stroke="#595959" stroke-width="1.0" stroke-linejoin="round" stroke-linecap="butt" d="m80.36344 6.4330707l43.590553 0l0 526.1103l-43.590553 0z" fill-rule="evenodd"/><path fill="#000000" fill-opacity="0.0" d="m78.965515 217.44882l50.015747 0l0 90.48819l-50.015747 0z" fill-rule="evenodd"/><path fill="#000000" d="m115.121765 276.2532l0.703125 0.59375q-4.75 6.6875 -8.5625 6.6875q-1.109375 0 -1.796875 -0.734375q-0.671875 -0.734375 -0.671875 -1.90625q0 -1.703125 0.765625 -5.21875q-2.984375 4.390625 -5.28125 6.0625q-2.28125 1.671875 -5.28125 1.671875q-2.859375 0 -4.515625 -1.78125q-1.640625 -1.796875 -1.640625 -4.90625q0 -4.28125 2.671875 -8.96875q2.671875 -4.6875 6.71875 -7.765625q4.046875 -3.09375 7.734375 -3.09375q1.703125 0 2.578125 0.796875q0.890625 0.796875 1.234375 2.609375l2.59375 -9.60939q0.875 -3.234375 0.875 -4.109375q0 -0.9375 -0.625 -1.203125q-0.609375 -0.265625 -3.015625 -0.328125l0 -1.0q4.515625 -0.40625 8.984375 -1.34375l0.28125 0.296875q-3.921875 15.48439 -5.796875 21.812515q-3.8125 12.734375 -3.8125 14.4375q0 0.46875 0.3125 0.828125q0.328125 0.34375 0.734375 0.34375q0.765625 0 1.609375 -0.734375q0.859375 -0.734375 3.203125 -3.4375zm-6.28125 -14.65625q0 -3.34375 -2.875 -3.34375q-2.625 0 -5.5 3.078125q-2.875 3.078125 -4.703125 7.453125q-1.8125 4.359375 -1.8125 7.9375q0 1.703125 0.9375 2.796875q0.9375 1.078125 2.46875 1.078125q2.640625 0 5.328125 -2.875q2.703125 -2.875 4.421875 -7.328125q1.734375 -4.453125 1.734375 -8.796875z" fill-rule="nonzero"/><path fill="#eeeeee" d="m510.31705 262.62546l16.362152 0l0 -15.667755l14.749084 0l0 15.667755l16.362122 0l0 14.749084l-16.362122 0l0 15.667755l-14.749084 0l0 -15.667755l-16.362152 0z" fill-rule="evenodd"/><path stroke="#595959" stroke-width="1.0" stroke-linejoin="round" stroke-linecap="butt" d="m510.31705 262.62546l16.362152 0l0 -15.667755l14.749084 0l0 15.667755l16.362122 0l0 14.749084l-16.362122 0l0 15.667755l-14.749084 0l0 -15.667755l-16.362152 0z" fill-rule="evenodd"/><path fill="#eeeeee" d="m677.26636 269.4882l0 0c0 -1.9743042 1.4805908 -3.5747986 3.3070679 -3.5747986l0 0c0.8770752 0 1.7182617 0.37661743 2.33844 1.0470276c0.62023926 0.67041016 0.9686279 1.5796814 0.9686279 2.527771l0 0c0 1.9743042 -1.4806519 3.5747986 -3.3070679 3.5747986l0 0c-1.826477 0 -3.3070679 -1.6004944 -3.3070679 -3.5747986z" fill-rule="evenodd"/><path stroke="#595959" stroke-width="1.0" stroke-linejoin="round" stroke-linecap="butt" d="m677.26636 269.4882l0 0c0 -1.9743042 1.4805908 -3.5747986 3.3070679 -3.5747986l0 0c0.8770752 0 1.7182617 0.37661743 2.33844 1.0470276c0.62023926 0.67041016 0.9686279 1.5796814 0.9686279 2.527771l0 0c0 1.9743042 -1.4806519 3.5747986 -3.3070679 3.5747986l0 0c-1.826477 0 -3.3070679 -1.6004944 -3.3070679 -3.5747986z" fill-rule="evenodd"/><path fill="#b4a7d6" d="m210.46318 6.4330707l147.87401 0l0 526.1103l-147.87401 0z" fill-rule="evenodd"/><path stroke="#595959" stroke-width="1.0" stroke-linejoin="round" stroke-linecap="butt" d="m210.46318 6.4330707l147.87401 0l0 526.1103l-147.87401 0z" fill-rule="evenodd"/><path fill="#b4a7d6" d="m257.65485 220.67192l57.921265 0l0 90.488174l-57.921265 0z" fill-rule="evenodd"/><path fill="#000000" d="m301.67047 256.4294q0 2.0 -0.734375 3.875q-0.734375 1.875 -2.40625 3.71875q-1.671875 1.84375 -4.953125 2.96875q-3.28125 1.109375 -7.796875 1.109375q-3.46875 0 -5.40625 -0.46875l-3.109375 11.328125q-0.703125 2.515625 -0.703125 3.390625q0 1.46875 0.609375 1.890625q0.625 0.40625 3.390625 0.8125l0 0.9375l-14.375 0l0 -0.9375q2.515625 -0.359375 3.28125 -1.03125q0.765625 -0.671875 1.53125 -3.3125l6.921875 -24.921875q1.0 -3.46875 1.0 -4.703125q0 -1.171875 -0.859375 -1.671875q-0.84375 -0.5 -3.3125 -0.78125l0 -0.9375l14.546875 0q5.984375 0 9.171875 2.265625q3.203125 2.25 3.203125 6.46875zm-6.046875 0q0 -3.28125 -1.671875 -5.125q-1.671875 -1.859375 -6.1875 -1.859375q-2.21875 0 -2.6875 1.640625l-4.171875 14.546875q2.0 0.296875 3.046875 0.296875q5.640625 0 8.65625 -2.046875q3.015625 -2.0625 3.015625 -7.453125z" fill-rule="nonzero"/><path fill="#b6d7a8" d="m484.23483 196.06299l0 147.87402l-85.921265 0l0 -147.87402z" fill-rule="evenodd"/><path stroke="#595959" stroke-width="1.0" stroke-linejoin="round" stroke-linecap="butt" d="m484.23483 196.06299l0 147.87402l-85.921265 0l0 -147.87402z" fill-rule="evenodd"/><path fill="#000000" fill-opacity="0.0" d="m426.33456 195.86089l0 147.96852" fill-rule="evenodd"/><path stroke="#595959" stroke-width="1.0" stroke-linejoin="round" stroke-linecap="butt" d="m426.33456 195.86089l0 147.96852" fill-rule="evenodd"/><path fill="#000000" fill-opacity="0.0" d="m456.3582 196.5748l2.1417542 147.24411" fill-rule="evenodd"/><path stroke="#595959" stroke-width="1.0" stroke-linejoin="round" stroke-linecap="butt" d="m456.3582 196.5748l2.1417542 147.24411" fill-rule="evenodd"/><path fill="#000000" fill-opacity="0.0" d="m421.5118 217.44882l43.590576 0l0 90.48819l-43.590576 0z" fill-rule="evenodd"/><path fill="#000000" d="m439.90244 283.40945q-1.171875 0 -3.171875 -0.5625q-2.0 -0.546875 -2.9375 -0.546875q-0.8125 0 -1.40625 1.234375l-0.9375 0l1.171875 -9.328125l0.9375 0q0.703125 4.15625 2.140625 6.0625q1.4375 1.90625 3.84375 1.90625q1.9375 0 3.140625 -1.25q1.203125 -1.265625 1.203125 -3.265625q0 -1.6875 -1.09375 -3.625q-1.078125 -1.9375 -2.40625 -3.375q-1.3125 -1.4375 -2.40625 -3.421875q-1.078125 -2.0 -1.078125 -3.890625q0 -2.921875 1.9375 -4.6875q1.9375 -1.765625 5.15625 -1.765625q1.171875 0 3.015625 0.5q1.859375 0.5 2.390625 0.5q1.171875 0 1.75 -1.046875l0.828125 0l-1.171875 8.15625l-0.9375 0q-0.875 -6.75 -5.40625 -6.75q-1.515625 0 -2.40625 0.859375q-0.875 0.84375 -0.875 2.3125q0 1.40625 1.109375 3.28125q1.125 1.875 2.46875 3.4375q1.359375 1.546875 2.46875 3.65625q1.109375 2.109375 1.109375 3.984375q0 3.34375 -2.375 5.484375q-2.375 2.140625 -6.0625 2.140625z" fill-rule="nonzero"/><path fill="#b4a7d6" d="m583.8726 6.944882l75.87402 0l0 526.1102l-75.87402 0z" fill-rule="evenodd"/><path stroke="#595959" stroke-width="1.0" stroke-linejoin="round" stroke-linecap="butt" d="m583.8726 6.944882l75.87402 0l0 526.1102l-75.87402 0z" fill-rule="evenodd"/><path fill="#b4a7d6" d="m596.80054 224.7559l57.921265 0l0 90.488174l-57.921265 0z" fill-rule="evenodd"/><path fill="#000000" d="m642.92554 251.77904l-2.578125 9.562485l-1.0 -0.125q0.1875 -1.53125 0.1875 -2.640625q0 -2.46875 -1.46875 -3.6093597q-1.46875 -1.140625 -4.640625 -1.140625l-3.21875 0l-8.15625 29.218735q-0.703125 2.625 -0.703125 3.453125q0 1.296875 0.640625 1.828125q0.640625 0.515625 2.40625 0.640625q0.171875 0 0.9375 0.0625q0.765625 0.046875 1.296875 0.109375l0 0.9375l-17.015625 0l0 -0.9375q2.9375 -0.234375 4.28125 -1.140625q1.34375 -0.90625 1.9375 -3.203125l8.453125 -30.968735l-1.234375 0q-5.921875 0 -8.21875 1.328125q-2.28125 1.3124847 -4.515625 5.8906097l-1.0625 -0.234375l2.46875 -9.031235l31.203125 0z" fill-rule="nonzero"/><path fill="#b6d7a8" d="m731.5629 232.06299l0 75.87402l-30.173218 0l0 -75.87402z" fill-rule="evenodd"/><path stroke="#595959" stroke-width="1.0" stroke-linejoin="round" stroke-linecap="butt" d="m731.5629 232.06299l0 75.87402l-30.173218 0l0 -75.87402z" fill-rule="evenodd"/><path fill="#000000" fill-opacity="0.0" d="m691.46716 217.44882l50.015747 0l0 90.48819l-50.015747 0z" fill-rule="evenodd"/><path fill="#000000" d="m720.0609 280.1907q0.40625 0 0.703125 -0.203125q0.296875 -0.203125 0.546875 -0.5q0.265625 -0.296875 1.09375 -1.296875q0.828125 -1.0 1.640625 -1.9375l0.828125 0.46875q-2.53125 3.9375 -4.0 5.3125q-1.453125 1.375 -3.15625 1.375q-1.40625 0 -2.125 -0.8125q-0.703125 -0.828125 -1.28125 -3.109375l-1.765625 -7.046875q-5.21875 7.21875 -7.125 9.09375q-1.90625 1.875 -3.609375 1.875q-1.34375 0 -2.125 -0.671875q-0.796875 -0.671875 -0.796875 -1.78125q0 -0.890625 0.59375 -1.46875q0.578125 -0.59375 1.390625 -0.59375q0.703125 0 1.8125 0.5625q1.125 0.5625 1.59375 0.5625q1.0 0 2.984375 -2.828125l4.8125 -6.859375l-1.703125 -7.21875q-0.578125 -2.640625 -1.046875 -3.34375q-0.46875 -0.703125 -1.59375 -0.703125q-0.578125 0 -3.28125 0.65625l-0.234375 -0.890625l0.65625 -0.234375q5.15625 -1.703125 6.859375 -1.703125q1.171875 0 1.78125 1.09375q0.625 1.078125 1.265625 4.078125l0.640625 3.21875q3.046875 -4.6875 4.984375 -6.53125q1.9375 -1.859375 3.875 -1.859375q1.0625 0 1.734375 0.625q0.671875 0.609375 0.671875 1.546875q0 0.9375 -0.5625 1.53125q-0.546875 0.59375 -1.484375 0.59375q-0.59375 0 -1.53125 -0.5q-0.9375 -0.5 -1.46875 -0.5q-1.703125 0 -5.75 7.09375q0 1.34375 2.34375 10.5q0.59375 2.40625 1.828125 2.40625z" fill-rule="nonzero"/><path fill="#eeeeee" d="m766.1989 262.62546l16.362183 0l0 -15.667755l14.749084 0l0 15.667755l16.362122 0l0 14.749084l-16.362122 0l0 15.667755l-14.749084 0l0 -15.667755l-16.362183 0z" fill-rule="evenodd"/><path stroke="#595959" stroke-width="1.0" stroke-linejoin="round" stroke-linecap="butt" d="m766.1989 262.62546l16.362183 0l0 -15.667755l14.749084 0l0 15.667755l16.362122 0l0 14.749084l-16.362122 0l0 15.667755l-14.749084 0l0 -15.667755l-16.362183 0z" fill-rule="evenodd"/><path fill="#f9cb9c" d="m844.2296 6.944882l43.590515 0l0 526.1102l-43.590515 0z" fill-rule="evenodd"/><path stroke="#595959" stroke-width="1.0" stroke-linejoin="round" stroke-linecap="butt" d="m844.2296 6.944882l43.590515 0l0 526.1102l-43.590515 0z" fill-rule="evenodd"/><path fill="#000000" fill-opacity="0.0" d="m844.76117 220.62466l50.015747 0l0 90.48819l-50.015747 0z" fill-rule="evenodd"/><path fill="#000000" d="m880.74554 279.0853l0.8125 0.765625q-3.046875 4.046875 -4.640625 5.34375q-1.578125 1.28125 -3.5625 1.28125q-1.46875 0 -2.125 -0.765625q-0.640625 -0.765625 -0.640625 -2.40625q0 -0.875 0.9375 -4.390625l2.59375 -9.6875q0.8125 -3.171875 0.8125 -4.453125q0 -1.703125 -1.40625 -1.703125q-3.21875 0 -8.671875 8.328125q-1.9375 2.984375 -2.890625 5.3125q-0.9375 2.3125 -2.984375 9.234375l-4.390625 0l5.625 -20.53125q0.109375 -0.578125 0.109375 -1.0q0 -0.875 -0.765625 -1.1875q-0.75 -0.328125 -2.984375 -0.390625l0 -0.9375q5.921875 -1.109375 9.5 -1.828125l0.1875 0.125l-3.9375 12.78125q4.515625 -7.03125 7.59375 -9.96875q3.078125 -2.9375 5.90625 -2.9375q1.6875 0 2.765625 1.0q1.09375 1.0 1.09375 2.578125q0 1.53125 -0.53125 3.34375l-3.328125 12.09375q-0.828125 3.28125 -0.828125 3.6875q0 0.359375 0.28125 0.65625q0.296875 0.28125 0.65625 0.28125q1.109375 0 3.578125 -3.109375l1.234375 -1.515625z" fill-rule="nonzero"/></g></svg>