<?xml version="1.0" encoding="utf-8" standalone="no"?>
<!DOCTYPE svg PUBLIC "-//W3C//DTD SVG 1.1//EN"
  "http://www.w3.org/Graphics/SVG/1.1/DTD/svg11.dtd">
<svg xmlns:xlink="http://www.w3.org/1999/xlink" width="421.065781pt" height="315.046219pt" viewBox="0 0 421.065781 315.046219" xmlns="http://www.w3.org/2000/svg" version="1.1">
 <metadata>
  <rdf:RDF xmlns:dc="http://purl.org/dc/elements/1.1/" xmlns:cc="http://creativecommons.org/ns#" xmlns:rdf="http://www.w3.org/1999/02/22-rdf-syntax-ns#">
   <cc:Work>
    <dc:type rdf:resource="http://purl.org/dc/dcmitype/StillImage"/>
    <dc:date>2025-09-24T13:56:15.618574</dc:date>
    <dc:format>image/svg+xml</dc:format>
    <dc:creator>
     <cc:Agent>
      <dc:title>Matplotlib v3.10.3, https://matplotlib.org/</dc:title>
     </cc:Agent>
    </dc:creator>
   </cc:Work>
  </rdf:RDF>
 </metadata>
 <defs>
  <style type="text/css">*{stroke-linejoin: round; stroke-linecap: butt}</style>
 </defs>
 <g id="figure_1">
  <g id="patch_1">
   <path d="M 0 315.046219 
L 421.065781 315.046219 
L 421.065781 0 
L 0 0 
z
" style="fill: #ffffff"/>
  </g>
  <g id="axes_1">
   <g id="patch_2">
    <path d="M 56.745781 273.312 
L 413.865781 273.312 
L 413.865781 7.2 
L 56.745781 7.2 
z
" style="fill: #ffffff"/>
   </g>
   <g id="matplotlib.axis_1">
    <g id="xtick_1">
     <g id="line2d_1">
      <path d="M 79.198859 273.312 
L 79.198859 7.2 
" clip-path="url(#p35a14f3cc8)" style="fill: none; stroke: #cccccc; stroke-linecap: round"/>
     </g>
     <g id="line2d_2">
      <defs>
       <path id="mdd36b859a9" d="M 0 0 
L 0 6 
" style="stroke: #262626; stroke-width: 1.25"/>
      </defs>
      <g>
       <use xlink:href="#mdd36b859a9" x="79.198859" y="273.312" style="fill: #262626; stroke: #262626; stroke-width: 1.25"/>
      </g>
     </g>
     <g id="text_1">
      <!-- 0.1% -->
      <g style="fill: #262626" transform="translate(66.663155 290.685594) scale(0.11 -0.11)">
       <defs>
        <path id="ArialMT-30" d="M 266 2259 
Q 266 3072 433 3567 
Q 600 4063 929 4331 
Q 1259 4600 1759 4600 
Q 2128 4600 2406 4451 
Q 2684 4303 2865 4023 
Q 3047 3744 3150 3342 
Q 3253 2941 3253 2259 
Q 3253 1453 3087 958 
Q 2922 463 2592 192 
Q 2263 -78 1759 -78 
Q 1097 -78 719 397 
Q 266 969 266 2259 
z
M 844 2259 
Q 844 1131 1108 757 
Q 1372 384 1759 384 
Q 2147 384 2411 759 
Q 2675 1134 2675 2259 
Q 2675 3391 2411 3762 
Q 2147 4134 1753 4134 
Q 1366 4134 1134 3806 
Q 844 3388 844 2259 
z
" transform="scale(0.015625)"/>
        <path id="ArialMT-2e" d="M 581 0 
L 581 641 
L 1222 641 
L 1222 0 
L 581 0 
z
" transform="scale(0.015625)"/>
        <path id="ArialMT-31" d="M 2384 0 
L 1822 0 
L 1822 3584 
Q 1619 3391 1289 3197 
Q 959 3003 697 2906 
L 697 3450 
Q 1169 3672 1522 3987 
Q 1875 4303 2022 4600 
L 2384 4600 
L 2384 0 
z
" transform="scale(0.015625)"/>
        <path id="ArialMT-25" d="M 372 3481 
Q 372 3972 619 4315 
Q 866 4659 1334 4659 
Q 1766 4659 2048 4351 
Q 2331 4044 2331 3447 
Q 2331 2866 2045 2552 
Q 1759 2238 1341 2238 
Q 925 2238 648 2547 
Q 372 2856 372 3481 
z
M 1350 4272 
Q 1141 4272 1002 4090 
Q 863 3909 863 3425 
Q 863 2984 1003 2804 
Q 1144 2625 1350 2625 
Q 1563 2625 1702 2806 
Q 1841 2988 1841 3469 
Q 1841 3913 1700 4092 
Q 1559 4272 1350 4272 
z
M 1353 -169 
L 3859 4659 
L 4316 4659 
L 1819 -169 
L 1353 -169 
z
M 3334 1075 
Q 3334 1569 3581 1911 
Q 3828 2253 4300 2253 
Q 4731 2253 5014 1945 
Q 5297 1638 5297 1041 
Q 5297 459 5011 145 
Q 4725 -169 4303 -169 
Q 3888 -169 3611 142 
Q 3334 453 3334 1075 
z
M 4316 1866 
Q 4103 1866 3964 1684 
Q 3825 1503 3825 1019 
Q 3825 581 3965 400 
Q 4106 219 4313 219 
Q 4528 219 4667 400 
Q 4806 581 4806 1063 
Q 4806 1506 4665 1686 
Q 4525 1866 4316 1866 
z
" transform="scale(0.015625)"/>
       </defs>
       <use xlink:href="#ArialMT-30"/>
       <use xlink:href="#ArialMT-2e" transform="translate(55.615234 0)"/>
       <use xlink:href="#ArialMT-31" transform="translate(83.398438 0)"/>
       <use xlink:href="#ArialMT-25" transform="translate(139.013672 0)"/>
      </g>
     </g>
    </g>
    <g id="xtick_2">
     <g id="line2d_3">
      <path d="M 215.141099 273.312 
L 215.141099 7.2 
" clip-path="url(#p35a14f3cc8)" style="fill: none; stroke: #cccccc; stroke-linecap: round"/>
     </g>
     <g id="line2d_4">
      <g>
       <use xlink:href="#mdd36b859a9" x="215.141099" y="273.312" style="fill: #262626; stroke: #262626; stroke-width: 1.25"/>
      </g>
     </g>
     <g id="text_2">
      <!-- 1% -->
      <g style="fill: #262626" transform="translate(207.19188 290.685594) scale(0.11 -0.11)">
       <use xlink:href="#ArialMT-31"/>
       <use xlink:href="#ArialMT-25" transform="translate(55.615234 0)"/>
      </g>
     </g>
    </g>
    <g id="xtick_3">
     <g id="line2d_5">
      <path d="M 351.08334 273.312 
L 351.08334 7.2 
" clip-path="url(#p35a14f3cc8)" style="fill: none; stroke: #cccccc; stroke-linecap: round"/>
     </g>
     <g id="line2d_6">
      <g>
       <use xlink:href="#mdd36b859a9" x="351.08334" y="273.312" style="fill: #262626; stroke: #262626; stroke-width: 1.25"/>
      </g>
     </g>
     <g id="text_3">
      <!-- 10% -->
      <g style="fill: #262626" transform="translate(340.075605 290.685594) scale(0.11 -0.11)">
       <use xlink:href="#ArialMT-31"/>
       <use xlink:href="#ArialMT-30" transform="translate(55.615234 0)"/>
       <use xlink:href="#ArialMT-25" transform="translate(111.230469 0)"/>
      </g>
     </g>
    </g>
    <g id="xtick_4">
     <g id="line2d_7">
      <path d="M 392.006032 273.312 
L 392.006032 7.2 
" clip-path="url(#p35a14f3cc8)" style="fill: none; stroke: #cccccc; stroke-linecap: round"/>
     </g>
     <g id="line2d_8">
      <g>
       <use xlink:href="#mdd36b859a9" x="392.006032" y="273.312" style="fill: #262626; stroke: #262626; stroke-width: 1.25"/>
      </g>
     </g>
     <g id="text_4">
      <!-- 20% -->
      <g style="fill: #262626" transform="translate(380.998298 290.685594) scale(0.11 -0.11)">
       <defs>
        <path id="ArialMT-32" d="M 3222 541 
L 3222 0 
L 194 0 
Q 188 203 259 391 
Q 375 700 629 1000 
Q 884 1300 1366 1694 
Q 2113 2306 2375 2664 
Q 2638 3022 2638 3341 
Q 2638 3675 2398 3904 
Q 2159 4134 1775 4134 
Q 1369 4134 1125 3890 
Q 881 3647 878 3216 
L 300 3275 
Q 359 3922 746 4261 
Q 1134 4600 1788 4600 
Q 2447 4600 2831 4234 
Q 3216 3869 3216 3328 
Q 3216 3053 3103 2787 
Q 2991 2522 2730 2228 
Q 2469 1934 1863 1422 
Q 1356 997 1212 845 
Q 1069 694 975 541 
L 3222 541 
z
" transform="scale(0.015625)"/>
       </defs>
       <use xlink:href="#ArialMT-32"/>
       <use xlink:href="#ArialMT-30" transform="translate(55.615234 0)"/>
       <use xlink:href="#ArialMT-25" transform="translate(111.230469 0)"/>
      </g>
     </g>
    </g>
    <g id="xtick_5">
     <g id="line2d_9">
      <defs>
       <path id="m3e8d426b5b" d="M 0 0 
L 0 4 
" style="stroke: #262626"/>
      </defs>
      <g>
       <use xlink:href="#m3e8d426b5b" x="58.141139" y="273.312" style="fill: #262626; stroke: #262626"/>
      </g>
     </g>
    </g>
    <g id="xtick_6">
     <g id="line2d_10">
      <g>
       <use xlink:href="#m3e8d426b5b" x="66.024694" y="273.312" style="fill: #262626; stroke: #262626"/>
      </g>
     </g>
    </g>
    <g id="xtick_7">
     <g id="line2d_11">
      <g>
       <use xlink:href="#m3e8d426b5b" x="72.978483" y="273.312" style="fill: #262626; stroke: #262626"/>
      </g>
     </g>
    </g>
    <g id="xtick_8">
     <g id="line2d_12">
      <g>
       <use xlink:href="#m3e8d426b5b" x="120.121551" y="273.312" style="fill: #262626; stroke: #262626"/>
      </g>
     </g>
    </g>
    <g id="xtick_9">
     <g id="line2d_13">
      <g>
       <use xlink:href="#m3e8d426b5b" x="144.059791" y="273.312" style="fill: #262626; stroke: #262626"/>
      </g>
     </g>
    </g>
    <g id="xtick_10">
     <g id="line2d_14">
      <g>
       <use xlink:href="#m3e8d426b5b" x="161.044243" y="273.312" style="fill: #262626; stroke: #262626"/>
      </g>
     </g>
    </g>
    <g id="xtick_11">
     <g id="line2d_15">
      <g>
       <use xlink:href="#m3e8d426b5b" x="174.218407" y="273.312" style="fill: #262626; stroke: #262626"/>
      </g>
     </g>
    </g>
    <g id="xtick_12">
     <g id="line2d_16">
      <g>
       <use xlink:href="#m3e8d426b5b" x="184.982483" y="273.312" style="fill: #262626; stroke: #262626"/>
      </g>
     </g>
    </g>
    <g id="xtick_13">
     <g id="line2d_17">
      <g>
       <use xlink:href="#m3e8d426b5b" x="194.08338" y="273.312" style="fill: #262626; stroke: #262626"/>
      </g>
     </g>
    </g>
    <g id="xtick_14">
     <g id="line2d_18">
      <g>
       <use xlink:href="#m3e8d426b5b" x="201.966935" y="273.312" style="fill: #262626; stroke: #262626"/>
      </g>
     </g>
    </g>
    <g id="xtick_15">
     <g id="line2d_19">
      <g>
       <use xlink:href="#m3e8d426b5b" x="208.920723" y="273.312" style="fill: #262626; stroke: #262626"/>
      </g>
     </g>
    </g>
    <g id="xtick_16">
     <g id="line2d_20">
      <g>
       <use xlink:href="#m3e8d426b5b" x="256.063791" y="273.312" style="fill: #262626; stroke: #262626"/>
      </g>
     </g>
    </g>
    <g id="xtick_17">
     <g id="line2d_21">
      <g>
       <use xlink:href="#m3e8d426b5b" x="280.002032" y="273.312" style="fill: #262626; stroke: #262626"/>
      </g>
     </g>
    </g>
    <g id="xtick_18">
     <g id="line2d_22">
      <g>
       <use xlink:href="#m3e8d426b5b" x="296.986483" y="273.312" style="fill: #262626; stroke: #262626"/>
      </g>
     </g>
    </g>
    <g id="xtick_19">
     <g id="line2d_23">
      <g>
       <use xlink:href="#m3e8d426b5b" x="310.160648" y="273.312" style="fill: #262626; stroke: #262626"/>
      </g>
     </g>
    </g>
    <g id="xtick_20">
     <g id="line2d_24">
      <g>
       <use xlink:href="#m3e8d426b5b" x="320.924724" y="273.312" style="fill: #262626; stroke: #262626"/>
      </g>
     </g>
    </g>
    <g id="xtick_21">
     <g id="line2d_25">
      <g>
       <use xlink:href="#m3e8d426b5b" x="330.02562" y="273.312" style="fill: #262626; stroke: #262626"/>
      </g>
     </g>
    </g>
    <g id="xtick_22">
     <g id="line2d_26">
      <g>
       <use xlink:href="#m3e8d426b5b" x="337.909176" y="273.312" style="fill: #262626; stroke: #262626"/>
      </g>
     </g>
    </g>
    <g id="xtick_23">
     <g id="line2d_27">
      <g>
       <use xlink:href="#m3e8d426b5b" x="344.862964" y="273.312" style="fill: #262626; stroke: #262626"/>
      </g>
     </g>
    </g>
    <g id="text_5">
     <!-- Scatter around nominal NET -->
     <g style="fill: #262626" transform="translate(159.607344 305.461219) scale(0.12 -0.12)">
      <defs>
       <path id="ArialMT-53" d="M 288 1472 
L 859 1522 
Q 900 1178 1048 958 
Q 1197 738 1509 602 
Q 1822 466 2213 466 
Q 2559 466 2825 569 
Q 3091 672 3220 851 
Q 3350 1031 3350 1244 
Q 3350 1459 3225 1620 
Q 3100 1781 2813 1891 
Q 2628 1963 1997 2114 
Q 1366 2266 1113 2400 
Q 784 2572 623 2826 
Q 463 3081 463 3397 
Q 463 3744 659 4045 
Q 856 4347 1234 4503 
Q 1613 4659 2075 4659 
Q 2584 4659 2973 4495 
Q 3363 4331 3572 4012 
Q 3781 3694 3797 3291 
L 3216 3247 
Q 3169 3681 2898 3903 
Q 2628 4125 2100 4125 
Q 1550 4125 1298 3923 
Q 1047 3722 1047 3438 
Q 1047 3191 1225 3031 
Q 1400 2872 2139 2705 
Q 2878 2538 3153 2413 
Q 3553 2228 3743 1945 
Q 3934 1663 3934 1294 
Q 3934 928 3725 604 
Q 3516 281 3123 101 
Q 2731 -78 2241 -78 
Q 1619 -78 1198 103 
Q 778 284 539 648 
Q 300 1013 288 1472 
z
" transform="scale(0.015625)"/>
       <path id="ArialMT-63" d="M 2588 1216 
L 3141 1144 
Q 3050 572 2676 248 
Q 2303 -75 1759 -75 
Q 1078 -75 664 370 
Q 250 816 250 1647 
Q 250 2184 428 2587 
Q 606 2991 970 3192 
Q 1334 3394 1763 3394 
Q 2303 3394 2647 3120 
Q 2991 2847 3088 2344 
L 2541 2259 
Q 2463 2594 2264 2762 
Q 2066 2931 1784 2931 
Q 1359 2931 1093 2626 
Q 828 2322 828 1663 
Q 828 994 1084 691 
Q 1341 388 1753 388 
Q 2084 388 2306 591 
Q 2528 794 2588 1216 
z
" transform="scale(0.015625)"/>
       <path id="ArialMT-61" d="M 2588 409 
Q 2275 144 1986 34 
Q 1697 -75 1366 -75 
Q 819 -75 525 192 
Q 231 459 231 875 
Q 231 1119 342 1320 
Q 453 1522 633 1644 
Q 813 1766 1038 1828 
Q 1203 1872 1538 1913 
Q 2219 1994 2541 2106 
Q 2544 2222 2544 2253 
Q 2544 2597 2384 2738 
Q 2169 2928 1744 2928 
Q 1347 2928 1158 2789 
Q 969 2650 878 2297 
L 328 2372 
Q 403 2725 575 2942 
Q 747 3159 1072 3276 
Q 1397 3394 1825 3394 
Q 2250 3394 2515 3294 
Q 2781 3194 2906 3042 
Q 3031 2891 3081 2659 
Q 3109 2516 3109 2141 
L 3109 1391 
Q 3109 606 3145 398 
Q 3181 191 3288 0 
L 2700 0 
Q 2613 175 2588 409 
z
M 2541 1666 
Q 2234 1541 1622 1453 
Q 1275 1403 1131 1340 
Q 988 1278 909 1158 
Q 831 1038 831 891 
Q 831 666 1001 516 
Q 1172 366 1500 366 
Q 1825 366 2078 508 
Q 2331 650 2450 897 
Q 2541 1088 2541 1459 
L 2541 1666 
z
" transform="scale(0.015625)"/>
       <path id="ArialMT-74" d="M 1650 503 
L 1731 6 
Q 1494 -44 1306 -44 
Q 1000 -44 831 53 
Q 663 150 594 308 
Q 525 466 525 972 
L 525 2881 
L 113 2881 
L 113 3319 
L 525 3319 
L 525 4141 
L 1084 4478 
L 1084 3319 
L 1650 3319 
L 1650 2881 
L 1084 2881 
L 1084 941 
Q 1084 700 1114 631 
Q 1144 563 1211 522 
Q 1278 481 1403 481 
Q 1497 481 1650 503 
z
" transform="scale(0.015625)"/>
       <path id="ArialMT-65" d="M 2694 1069 
L 3275 997 
Q 3138 488 2766 206 
Q 2394 -75 1816 -75 
Q 1088 -75 661 373 
Q 234 822 234 1631 
Q 234 2469 665 2931 
Q 1097 3394 1784 3394 
Q 2450 3394 2872 2941 
Q 3294 2488 3294 1666 
Q 3294 1616 3291 1516 
L 816 1516 
Q 847 969 1125 678 
Q 1403 388 1819 388 
Q 2128 388 2347 550 
Q 2566 713 2694 1069 
z
M 847 1978 
L 2700 1978 
Q 2663 2397 2488 2606 
Q 2219 2931 1791 2931 
Q 1403 2931 1139 2672 
Q 875 2413 847 1978 
z
" transform="scale(0.015625)"/>
       <path id="ArialMT-72" d="M 416 0 
L 416 3319 
L 922 3319 
L 922 2816 
Q 1116 3169 1280 3281 
Q 1444 3394 1641 3394 
Q 1925 3394 2219 3213 
L 2025 2691 
Q 1819 2813 1613 2813 
Q 1428 2813 1281 2702 
Q 1134 2591 1072 2394 
Q 978 2094 978 1738 
L 978 0 
L 416 0 
z
" transform="scale(0.015625)"/>
       <path id="ArialMT-20" transform="scale(0.015625)"/>
       <path id="ArialMT-6f" d="M 213 1659 
Q 213 2581 725 3025 
Q 1153 3394 1769 3394 
Q 2453 3394 2887 2945 
Q 3322 2497 3322 1706 
Q 3322 1066 3130 698 
Q 2938 331 2570 128 
Q 2203 -75 1769 -75 
Q 1072 -75 642 372 
Q 213 819 213 1659 
z
M 791 1659 
Q 791 1022 1069 705 
Q 1347 388 1769 388 
Q 2188 388 2466 706 
Q 2744 1025 2744 1678 
Q 2744 2294 2464 2611 
Q 2184 2928 1769 2928 
Q 1347 2928 1069 2612 
Q 791 2297 791 1659 
z
" transform="scale(0.015625)"/>
       <path id="ArialMT-75" d="M 2597 0 
L 2597 488 
Q 2209 -75 1544 -75 
Q 1250 -75 995 37 
Q 741 150 617 320 
Q 494 491 444 738 
Q 409 903 409 1263 
L 409 3319 
L 972 3319 
L 972 1478 
Q 972 1038 1006 884 
Q 1059 663 1231 536 
Q 1403 409 1656 409 
Q 1909 409 2131 539 
Q 2353 669 2445 892 
Q 2538 1116 2538 1541 
L 2538 3319 
L 3100 3319 
L 3100 0 
L 2597 0 
z
" transform="scale(0.015625)"/>
       <path id="ArialMT-6e" d="M 422 0 
L 422 3319 
L 928 3319 
L 928 2847 
Q 1294 3394 1984 3394 
Q 2284 3394 2536 3286 
Q 2788 3178 2913 3003 
Q 3038 2828 3088 2588 
Q 3119 2431 3119 2041 
L 3119 0 
L 2556 0 
L 2556 2019 
Q 2556 2363 2490 2533 
Q 2425 2703 2258 2804 
Q 2091 2906 1866 2906 
Q 1506 2906 1245 2678 
Q 984 2450 984 1813 
L 984 0 
L 422 0 
z
" transform="scale(0.015625)"/>
       <path id="ArialMT-64" d="M 2575 0 
L 2575 419 
Q 2259 -75 1647 -75 
Q 1250 -75 917 144 
Q 584 363 401 755 
Q 219 1147 219 1656 
Q 219 2153 384 2558 
Q 550 2963 881 3178 
Q 1213 3394 1622 3394 
Q 1922 3394 2156 3267 
Q 2391 3141 2538 2938 
L 2538 4581 
L 3097 4581 
L 3097 0 
L 2575 0 
z
M 797 1656 
Q 797 1019 1065 703 
Q 1334 388 1700 388 
Q 2069 388 2326 689 
Q 2584 991 2584 1609 
Q 2584 2291 2321 2609 
Q 2059 2928 1675 2928 
Q 1300 2928 1048 2622 
Q 797 2316 797 1656 
z
" transform="scale(0.015625)"/>
       <path id="ArialMT-6d" d="M 422 0 
L 422 3319 
L 925 3319 
L 925 2853 
Q 1081 3097 1340 3245 
Q 1600 3394 1931 3394 
Q 2300 3394 2536 3241 
Q 2772 3088 2869 2813 
Q 3263 3394 3894 3394 
Q 4388 3394 4653 3120 
Q 4919 2847 4919 2278 
L 4919 0 
L 4359 0 
L 4359 2091 
Q 4359 2428 4304 2576 
Q 4250 2725 4106 2815 
Q 3963 2906 3769 2906 
Q 3419 2906 3187 2673 
Q 2956 2441 2956 1928 
L 2956 0 
L 2394 0 
L 2394 2156 
Q 2394 2531 2256 2718 
Q 2119 2906 1806 2906 
Q 1569 2906 1367 2781 
Q 1166 2656 1075 2415 
Q 984 2175 984 1722 
L 984 0 
L 422 0 
z
" transform="scale(0.015625)"/>
       <path id="ArialMT-69" d="M 425 3934 
L 425 4581 
L 988 4581 
L 988 3934 
L 425 3934 
z
M 425 0 
L 425 3319 
L 988 3319 
L 988 0 
L 425 0 
z
" transform="scale(0.015625)"/>
       <path id="ArialMT-6c" d="M 409 0 
L 409 4581 
L 972 4581 
L 972 0 
L 409 0 
z
" transform="scale(0.015625)"/>
       <path id="ArialMT-4e" d="M 488 0 
L 488 4581 
L 1109 4581 
L 3516 984 
L 3516 4581 
L 4097 4581 
L 4097 0 
L 3475 0 
L 1069 3600 
L 1069 0 
L 488 0 
z
" transform="scale(0.015625)"/>
       <path id="ArialMT-45" d="M 506 0 
L 506 4581 
L 3819 4581 
L 3819 4041 
L 1113 4041 
L 1113 2638 
L 3647 2638 
L 3647 2100 
L 1113 2100 
L 1113 541 
L 3925 541 
L 3925 0 
L 506 0 
z
" transform="scale(0.015625)"/>
       <path id="ArialMT-54" d="M 1659 0 
L 1659 4041 
L 150 4041 
L 150 4581 
L 3781 4581 
L 3781 4041 
L 2266 4041 
L 2266 0 
L 1659 0 
z
" transform="scale(0.015625)"/>
      </defs>
      <use xlink:href="#ArialMT-53"/>
      <use xlink:href="#ArialMT-63" transform="translate(66.699219 0)"/>
      <use xlink:href="#ArialMT-61" transform="translate(116.699219 0)"/>
      <use xlink:href="#ArialMT-74" transform="translate(172.314453 0)"/>
      <use xlink:href="#ArialMT-74" transform="translate(200.097656 0)"/>
      <use xlink:href="#ArialMT-65" transform="translate(227.880859 0)"/>
      <use xlink:href="#ArialMT-72" transform="translate(283.496094 0)"/>
      <use xlink:href="#ArialMT-20" transform="translate(316.796875 0)"/>
      <use xlink:href="#ArialMT-61" transform="translate(344.580078 0)"/>
      <use xlink:href="#ArialMT-72" transform="translate(400.195312 0)"/>
      <use xlink:href="#ArialMT-6f" transform="translate(433.496094 0)"/>
      <use xlink:href="#ArialMT-75" transform="translate(489.111328 0)"/>
      <use xlink:href="#ArialMT-6e" transform="translate(544.726562 0)"/>
      <use xlink:href="#ArialMT-64" transform="translate(600.341797 0)"/>
      <use xlink:href="#ArialMT-20" transform="translate(655.957031 0)"/>
      <use xlink:href="#ArialMT-6e" transform="translate(683.740234 0)"/>
      <use xlink:href="#ArialMT-6f" transform="translate(739.355469 0)"/>
      <use xlink:href="#ArialMT-6d" transform="translate(794.970703 0)"/>
      <use xlink:href="#ArialMT-69" transform="translate(878.271484 0)"/>
      <use xlink:href="#ArialMT-6e" transform="translate(900.488281 0)"/>
      <use xlink:href="#ArialMT-61" transform="translate(956.103516 0)"/>
      <use xlink:href="#ArialMT-6c" transform="translate(1011.71875 0)"/>
      <use xlink:href="#ArialMT-20" transform="translate(1033.935547 0)"/>
      <use xlink:href="#ArialMT-4e" transform="translate(1061.71875 0)"/>
      <use xlink:href="#ArialMT-45" transform="translate(1133.935547 0)"/>
      <use xlink:href="#ArialMT-54" transform="translate(1200.634766 0)"/>
     </g>
    </g>
   </g>
   <g id="matplotlib.axis_2">
    <g id="ytick_1">
     <g id="line2d_28">
      <path d="M 56.745781 216.489421 
L 413.865781 216.489421 
" clip-path="url(#p35a14f3cc8)" style="fill: none; stroke: #cccccc; stroke-linecap: round"/>
     </g>
     <g id="line2d_29">
      <defs>
       <path id="m3c4efc21a7" d="M 0 0 
L -6 0 
" style="stroke: #262626; stroke-width: 1.25"/>
      </defs>
      <g>
       <use xlink:href="#m3c4efc21a7" x="56.745781" y="216.489421" style="fill: #262626; stroke: #262626; stroke-width: 1.25"/>
      </g>
     </g>
     <g id="text_6">
      <!-- 0% -->
      <g style="fill: #262626" transform="translate(31.347344 220.426218) scale(0.11 -0.11)">
       <use xlink:href="#ArialMT-30"/>
       <use xlink:href="#ArialMT-25" transform="translate(55.615234 0)"/>
      </g>
     </g>
    </g>
    <g id="ytick_2">
     <g id="line2d_30">
      <path d="M 56.745781 142.815345 
L 413.865781 142.815345 
" clip-path="url(#p35a14f3cc8)" style="fill: none; stroke: #cccccc; stroke-linecap: round"/>
     </g>
     <g id="line2d_31">
      <g>
       <use xlink:href="#m3c4efc21a7" x="56.745781" y="142.815345" style="fill: #262626; stroke: #262626; stroke-width: 1.25"/>
      </g>
     </g>
     <g id="text_7">
      <!-- 0.1% -->
      <g style="fill: #262626" transform="translate(22.174375 146.752142) scale(0.11 -0.11)">
       <use xlink:href="#ArialMT-30"/>
       <use xlink:href="#ArialMT-2e" transform="translate(55.615234 0)"/>
       <use xlink:href="#ArialMT-31" transform="translate(83.398438 0)"/>
       <use xlink:href="#ArialMT-25" transform="translate(139.013672 0)"/>
      </g>
     </g>
    </g>
    <g id="ytick_3">
     <g id="line2d_32">
      <path d="M 56.745781 86.295474 
L 413.865781 86.295474 
" clip-path="url(#p35a14f3cc8)" style="fill: none; stroke: #cccccc; stroke-linecap: round"/>
     </g>
     <g id="line2d_33">
      <g>
       <use xlink:href="#m3c4efc21a7" x="56.745781" y="86.295474" style="fill: #262626; stroke: #262626; stroke-width: 1.25"/>
      </g>
     </g>
     <g id="text_8">
      <!-- 1% -->
      <g style="fill: #262626" transform="translate(31.347344 90.232271) scale(0.11 -0.11)">
       <use xlink:href="#ArialMT-31"/>
       <use xlink:href="#ArialMT-25" transform="translate(55.615234 0)"/>
      </g>
     </g>
    </g>
    <g id="ytick_4">
     <g id="line2d_34">
      <path d="M 56.745781 46.74802 
L 413.865781 46.74802 
" clip-path="url(#p35a14f3cc8)" style="fill: none; stroke: #cccccc; stroke-linecap: round"/>
     </g>
     <g id="line2d_35">
      <g>
       <use xlink:href="#m3c4efc21a7" x="56.745781" y="46.74802" style="fill: #262626; stroke: #262626; stroke-width: 1.25"/>
      </g>
     </g>
     <g id="text_9">
      <!-- 5% -->
      <g style="fill: #262626" transform="translate(31.347344 50.684817) scale(0.11 -0.11)">
       <defs>
        <path id="ArialMT-35" d="M 266 1200 
L 856 1250 
Q 922 819 1161 601 
Q 1400 384 1738 384 
Q 2144 384 2425 690 
Q 2706 997 2706 1503 
Q 2706 1984 2436 2262 
Q 2166 2541 1728 2541 
Q 1456 2541 1237 2417 
Q 1019 2294 894 2097 
L 366 2166 
L 809 4519 
L 3088 4519 
L 3088 3981 
L 1259 3981 
L 1013 2750 
Q 1425 3038 1878 3038 
Q 2478 3038 2890 2622 
Q 3303 2206 3303 1553 
Q 3303 931 2941 478 
Q 2500 -78 1738 -78 
Q 1113 -78 717 272 
Q 322 622 266 1200 
z
" transform="scale(0.015625)"/>
       </defs>
       <use xlink:href="#ArialMT-35"/>
       <use xlink:href="#ArialMT-25" transform="translate(55.615234 0)"/>
      </g>
     </g>
    </g>
    <g id="ytick_5">
     <g id="line2d_36">
      <path d="M 56.745781 29.715623 
L 413.865781 29.715623 
" clip-path="url(#p35a14f3cc8)" style="fill: none; stroke: #cccccc; stroke-linecap: round"/>
     </g>
     <g id="line2d_37">
      <g>
       <use xlink:href="#m3c4efc21a7" x="56.745781" y="29.715623" style="fill: #262626; stroke: #262626; stroke-width: 1.25"/>
      </g>
     </g>
     <g id="text_10">
      <!-- 10% -->
      <g style="fill: #262626" transform="translate(25.230313 33.65242) scale(0.11 -0.11)">
       <use xlink:href="#ArialMT-31"/>
       <use xlink:href="#ArialMT-30" transform="translate(55.615234 0)"/>
       <use xlink:href="#ArialMT-25" transform="translate(111.230469 0)"/>
      </g>
     </g>
    </g>
    <g id="ytick_6">
     <g id="line2d_38">
      <path d="M 56.745781 12.683212 
L 413.865781 12.683212 
" clip-path="url(#p35a14f3cc8)" style="fill: none; stroke: #cccccc; stroke-linecap: round"/>
     </g>
     <g id="line2d_39">
      <g>
       <use xlink:href="#m3c4efc21a7" x="56.745781" y="12.683212" style="fill: #262626; stroke: #262626; stroke-width: 1.25"/>
      </g>
     </g>
     <g id="text_11">
      <!-- 20% -->
      <g style="fill: #262626" transform="translate(25.230313 16.620009) scale(0.11 -0.11)">
       <use xlink:href="#ArialMT-32"/>
       <use xlink:href="#ArialMT-30" transform="translate(55.615234 0)"/>
       <use xlink:href="#ArialMT-25" transform="translate(111.230469 0)"/>
      </g>
     </g>
    </g>
    <g id="ytick_7">
     <g id="line2d_40">
      <defs>
       <path id="md105c149a6" d="M 0 0 
L -4 0 
" style="stroke: #262626"/>
      </defs>
      <g>
       <use xlink:href="#md105c149a6" x="56.745781" y="273.312" style="fill: #262626; stroke: #262626"/>
      </g>
     </g>
    </g>
    <g id="ytick_8">
     <g id="line2d_41">
      <g>
       <use xlink:href="#md105c149a6" x="56.745781" y="251.963271" style="fill: #262626; stroke: #262626"/>
      </g>
     </g>
    </g>
    <g id="ytick_9">
     <g id="line2d_42">
      <g>
       <use xlink:href="#md105c149a6" x="56.745781" y="181.015572" style="fill: #262626; stroke: #262626"/>
      </g>
     </g>
    </g>
    <g id="ytick_10">
     <g id="line2d_43">
      <g>
       <use xlink:href="#md105c149a6" x="56.745781" y="159.666843" style="fill: #262626; stroke: #262626"/>
      </g>
     </g>
    </g>
    <g id="ytick_11">
     <g id="line2d_44">
      <g>
       <use xlink:href="#md105c149a6" x="56.745781" y="125.828788" style="fill: #262626; stroke: #262626"/>
      </g>
     </g>
    </g>
    <g id="ytick_12">
     <g id="line2d_45">
      <g>
       <use xlink:href="#md105c149a6" x="56.745781" y="103.326047" style="fill: #262626; stroke: #262626"/>
      </g>
     </g>
    </g>
    <g id="ytick_13">
     <g id="line2d_46">
      <g>
       <use xlink:href="#md105c149a6" x="56.745781" y="69.263519" style="fill: #262626; stroke: #262626"/>
      </g>
     </g>
    </g>
    <g id="text_12">
     <!-- Relative variance increase -->
     <g style="fill: #262626" transform="translate(15.789375 210.620063) rotate(-90) scale(0.12 -0.12)">
      <defs>
       <path id="ArialMT-52" d="M 503 0 
L 503 4581 
L 2534 4581 
Q 3147 4581 3465 4457 
Q 3784 4334 3975 4021 
Q 4166 3709 4166 3331 
Q 4166 2844 3850 2509 
Q 3534 2175 2875 2084 
Q 3116 1969 3241 1856 
Q 3506 1613 3744 1247 
L 4541 0 
L 3778 0 
L 3172 953 
Q 2906 1366 2734 1584 
Q 2563 1803 2427 1890 
Q 2291 1978 2150 2013 
Q 2047 2034 1813 2034 
L 1109 2034 
L 1109 0 
L 503 0 
z
M 1109 2559 
L 2413 2559 
Q 2828 2559 3062 2645 
Q 3297 2731 3419 2920 
Q 3541 3109 3541 3331 
Q 3541 3656 3305 3865 
Q 3069 4075 2559 4075 
L 1109 4075 
L 1109 2559 
z
" transform="scale(0.015625)"/>
       <path id="ArialMT-76" d="M 1344 0 
L 81 3319 
L 675 3319 
L 1388 1331 
Q 1503 1009 1600 663 
Q 1675 925 1809 1294 
L 2547 3319 
L 3125 3319 
L 1869 0 
L 1344 0 
z
" transform="scale(0.015625)"/>
       <path id="ArialMT-73" d="M 197 991 
L 753 1078 
Q 800 744 1014 566 
Q 1228 388 1613 388 
Q 2000 388 2187 545 
Q 2375 703 2375 916 
Q 2375 1106 2209 1216 
Q 2094 1291 1634 1406 
Q 1016 1563 777 1677 
Q 538 1791 414 1992 
Q 291 2194 291 2438 
Q 291 2659 392 2848 
Q 494 3038 669 3163 
Q 800 3259 1026 3326 
Q 1253 3394 1513 3394 
Q 1903 3394 2198 3281 
Q 2494 3169 2634 2976 
Q 2775 2784 2828 2463 
L 2278 2388 
Q 2241 2644 2061 2787 
Q 1881 2931 1553 2931 
Q 1166 2931 1000 2803 
Q 834 2675 834 2503 
Q 834 2394 903 2306 
Q 972 2216 1119 2156 
Q 1203 2125 1616 2013 
Q 2213 1853 2448 1751 
Q 2684 1650 2818 1456 
Q 2953 1263 2953 975 
Q 2953 694 2789 445 
Q 2625 197 2315 61 
Q 2006 -75 1616 -75 
Q 969 -75 630 194 
Q 291 463 197 991 
z
" transform="scale(0.015625)"/>
      </defs>
      <use xlink:href="#ArialMT-52"/>
      <use xlink:href="#ArialMT-65" transform="translate(72.216797 0)"/>
      <use xlink:href="#ArialMT-6c" transform="translate(127.832031 0)"/>
      <use xlink:href="#ArialMT-61" transform="translate(150.048828 0)"/>
      <use xlink:href="#ArialMT-74" transform="translate(205.664062 0)"/>
      <use xlink:href="#ArialMT-69" transform="translate(233.447266 0)"/>
      <use xlink:href="#ArialMT-76" transform="translate(255.664062 0)"/>
      <use xlink:href="#ArialMT-65" transform="translate(305.664062 0)"/>
      <use xlink:href="#ArialMT-20" transform="translate(361.279297 0)"/>
      <use xlink:href="#ArialMT-76" transform="translate(389.0625 0)"/>
      <use xlink:href="#ArialMT-61" transform="translate(439.0625 0)"/>
      <use xlink:href="#ArialMT-72" transform="translate(494.677734 0)"/>
      <use xlink:href="#ArialMT-69" transform="translate(527.978516 0)"/>
      <use xlink:href="#ArialMT-61" transform="translate(550.195312 0)"/>
      <use xlink:href="#ArialMT-6e" transform="translate(605.810547 0)"/>
      <use xlink:href="#ArialMT-63" transform="translate(661.425781 0)"/>
      <use xlink:href="#ArialMT-65" transform="translate(711.425781 0)"/>
      <use xlink:href="#ArialMT-20" transform="translate(767.041016 0)"/>
      <use xlink:href="#ArialMT-69" transform="translate(794.824219 0)"/>
      <use xlink:href="#ArialMT-6e" transform="translate(817.041016 0)"/>
      <use xlink:href="#ArialMT-63" transform="translate(872.65625 0)"/>
      <use xlink:href="#ArialMT-72" transform="translate(922.65625 0)"/>
      <use xlink:href="#ArialMT-65" transform="translate(955.957031 0)"/>
      <use xlink:href="#ArialMT-61" transform="translate(1011.572266 0)"/>
      <use xlink:href="#ArialMT-73" transform="translate(1067.1875 0)"/>
      <use xlink:href="#ArialMT-65" transform="translate(1117.1875 0)"/>
     </g>
    </g>
   </g>
   <g id="PathCollection_1">
    <defs>
     <path id="m1898dd4ddb" d="M -5.656854 5.656854 
L 5.656854 -5.656854 
M -5.656854 -5.656854 
L 5.656854 5.656854 
" style="stroke: #c44e52; stroke-width: 1.5"/>
    </defs>
    <g clip-path="url(#p35a14f3cc8)">
     <use xlink:href="#m1898dd4ddb" x="79.198859" y="215.995089" style="fill: #c44e52; stroke: #c44e52; stroke-width: 1.5"/>
     <use xlink:href="#m1898dd4ddb" x="215.141099" y="180.87495" style="fill: #c44e52; stroke: #c44e52; stroke-width: 1.5"/>
     <use xlink:href="#m1898dd4ddb" x="351.08334" y="67.947332" style="fill: #c44e52; stroke: #c44e52; stroke-width: 1.5"/>
     <use xlink:href="#m1898dd4ddb" x="392.006032" y="29.302778" style="fill: #c44e52; stroke: #c44e52; stroke-width: 1.5"/>
    </g>
   </g>
   <g id="line2d_47">
    <path d="M 72.978509 216.079341 
L 76.257838 216.050053 
L 79.537198 215.962191 
L 82.816527 215.932906 
L 86.095855 215.874337 
L 89.375218 215.78649 
L 92.654545 215.72793 
L 95.933875 215.640099 
L 99.213232 215.523008 
L 102.492564 215.405939 
L 105.771892 215.259637 
L 109.051219 215.142627 
L 112.330581 214.96717 
L 115.609908 214.821014 
L 118.889271 214.58729 
L 122.168595 214.382921 
L 125.447924 214.207863 
L 128.727253 213.858101 
L 132.006612 213.567035 
L 135.285942 213.160237 
L 138.565301 212.899194 
L 141.8446 212.493937 
L 145.123959 211.945682 
L 148.403287 211.342317 
L 151.682649 210.770508 
L 154.961978 210.145022 
L 158.241336 209.43911 
L 161.520634 208.515976 
L 164.799994 207.796181 
L 168.079325 206.675674 
L 171.358686 205.627479 
L 174.638014 204.702294 
L 177.917339 203.381637 
L 181.196669 202.020073 
L 184.476029 200.31282 
L 187.755359 198.786399 
L 191.03472 196.287779 
L 194.314045 194.766836 
L 197.593377 193.131957 
L 200.872707 191.163205 
L 204.152064 188.584297 
L 207.43139 186.350009 
L 210.710754 184.171599 
L 213.990081 182.408936 
L 217.269412 179.795031 
L 220.548739 177.000772 
L 223.828081 174.729676 
L 227.107427 171.690726 
L 230.386773 169.41476 
L 233.666115 166.739744 
L 236.945445 163.758849 
L 240.22479 161.318872 
L 243.504115 158.738131 
L 246.78346 156.118109 
L 250.062808 153.09878 
L 253.342138 150.025456 
L 256.621482 147.204211 
L 259.900825 144.997695 
L 263.180151 142.660209 
L 266.459499 139.155759 
L 269.738827 136.330911 
L 273.01817 133.969273 
L 276.297515 131.561961 
L 279.576841 128.705926 
L 282.85619 125.84081 
L 286.135535 123.465419 
L 289.41486 120.650902 
L 292.694204 117.308418 
L 295.973548 114.466659 
L 299.252876 112.193659 
L 302.532225 109.318607 
L 305.811567 107.228913 
L 309.090896 104.045838 
L 312.370238 101.951828 
L 315.649584 98.09894 
L 318.928912 95.197415 
L 322.208258 93.042277 
L 325.487585 90.096926 
L 328.766931 86.88722 
L 332.046278 84.399811 
L 335.325618 82.192209 
L 338.604948 78.605617 
L 341.884293 76.14033 
L 345.163621 72.958856 
L 348.442964 69.789812 
L 351.722312 67.07692 
L 355.001644 64.298787 
L 358.280982 61.671969 
L 361.560326 59.048026 
L 364.839665 55.845869 
L 368.118994 52.286595 
L 371.398338 49.279021 
L 374.677674 46.741776 
L 377.957016 43.658669 
L 381.236352 40.950196 
L 384.515698 37.189953 
L 387.795028 32.94928 
L 391.074372 30.417893 
L 394.353707 27.381807 
L 397.633054 22.148643 
" clip-path="url(#p35a14f3cc8)" style="fill: none; stroke: #1a1a1a; stroke-width: 1.5; stroke-linecap: round"/>
   </g>
   <g id="LineCollection_1">
    <path d="M 78.006112 256.151888 
L 78.006112 175.142233 
" clip-path="url(#p35a14f3cc8)" style="fill: none; stroke: #4c72b0; stroke-width: 1.5"/>
    <path d="M 213.948352 226.429832 
L 213.948352 161.669765 
" clip-path="url(#p35a14f3cc8)" style="fill: none; stroke: #4c72b0; stroke-width: 1.5"/>
    <path d="M 349.890593 70.628153 
L 349.890593 64.673778 
" clip-path="url(#p35a14f3cc8)" style="fill: none; stroke: #4c72b0; stroke-width: 1.5"/>
    <path d="M 390.813285 32.148782 
L 390.813285 21.863261 
" clip-path="url(#p35a14f3cc8)" style="fill: none; stroke: #4c72b0; stroke-width: 1.5"/>
   </g>
   <g id="line2d_48">
    <defs>
     <path id="m09322b022f" d="M 3 0 
L -3 -0 
" style="stroke: #4c72b0"/>
    </defs>
    <g clip-path="url(#p35a14f3cc8)">
     <use xlink:href="#m09322b022f" x="78.006112" y="256.151888" style="fill: #4c72b0; stroke: #4c72b0"/>
     <use xlink:href="#m09322b022f" x="213.948352" y="226.429832" style="fill: #4c72b0; stroke: #4c72b0"/>
     <use xlink:href="#m09322b022f" x="349.890593" y="70.628153" style="fill: #4c72b0; stroke: #4c72b0"/>
     <use xlink:href="#m09322b022f" x="390.813285" y="32.148782" style="fill: #4c72b0; stroke: #4c72b0"/>
    </g>
   </g>
   <g id="line2d_49">
    <g clip-path="url(#p35a14f3cc8)">
     <use xlink:href="#m09322b022f" x="78.006112" y="175.142233" style="fill: #4c72b0; stroke: #4c72b0"/>
     <use xlink:href="#m09322b022f" x="213.948352" y="161.669765" style="fill: #4c72b0; stroke: #4c72b0"/>
     <use xlink:href="#m09322b022f" x="349.890593" y="64.673778" style="fill: #4c72b0; stroke: #4c72b0"/>
     <use xlink:href="#m09322b022f" x="390.813285" y="21.863261" style="fill: #4c72b0; stroke: #4c72b0"/>
    </g>
   </g>
   <g id="LineCollection_2">
    <path d="M 80.367985 256.106755 
L 80.367985 175.12596 
" clip-path="url(#p35a14f3cc8)" style="fill: none; stroke: #dd8452; stroke-width: 1.5"/>
    <path d="M 216.310226 226.29266 
L 216.310226 161.638959 
" clip-path="url(#p35a14f3cc8)" style="fill: none; stroke: #dd8452; stroke-width: 1.5"/>
    <path d="M 352.252466 70.637891 
L 352.252466 64.670012 
" clip-path="url(#p35a14f3cc8)" style="fill: none; stroke: #dd8452; stroke-width: 1.5"/>
    <path d="M 393.175159 32.152621 
L 393.175159 21.900081 
" clip-path="url(#p35a14f3cc8)" style="fill: none; stroke: #dd8452; stroke-width: 1.5"/>
   </g>
   <g id="line2d_50">
    <defs>
     <path id="ma500de775a" d="M 3 0 
L -3 -0 
" style="stroke: #dd8452"/>
    </defs>
    <g clip-path="url(#p35a14f3cc8)">
     <use xlink:href="#ma500de775a" x="80.367985" y="256.106755" style="fill: #dd8452; stroke: #dd8452"/>
     <use xlink:href="#ma500de775a" x="216.310226" y="226.29266" style="fill: #dd8452; stroke: #dd8452"/>
     <use xlink:href="#ma500de775a" x="352.252466" y="70.637891" style="fill: #dd8452; stroke: #dd8452"/>
     <use xlink:href="#ma500de775a" x="393.175159" y="32.152621" style="fill: #dd8452; stroke: #dd8452"/>
    </g>
   </g>
   <g id="line2d_51">
    <g clip-path="url(#p35a14f3cc8)">
     <use xlink:href="#ma500de775a" x="80.367985" y="175.12596" style="fill: #dd8452; stroke: #dd8452"/>
     <use xlink:href="#ma500de775a" x="216.310226" y="161.638959" style="fill: #dd8452; stroke: #dd8452"/>
     <use xlink:href="#ma500de775a" x="352.252466" y="64.670012" style="fill: #dd8452; stroke: #dd8452"/>
     <use xlink:href="#ma500de775a" x="393.175159" y="21.900081" style="fill: #dd8452; stroke: #dd8452"/>
    </g>
   </g>
   <g id="line2d_52">
    <defs>
     <path id="m98eaaeb7d8" d="M -4.5 3 
L 0 0 
L -4.5 -3 
" style="stroke: #4c72b0; stroke-linejoin: miter"/>
    </defs>
    <g clip-path="url(#p35a14f3cc8)">
     <use xlink:href="#m98eaaeb7d8" x="78.006112" y="216.993663" style="fill: #4c72b0; stroke: #4c72b0; stroke-linejoin: miter"/>
     <use xlink:href="#m98eaaeb7d8" x="213.948352" y="181.374675" style="fill: #4c72b0; stroke: #4c72b0; stroke-linejoin: miter"/>
     <use xlink:href="#m98eaaeb7d8" x="349.890593" y="67.7332" style="fill: #4c72b0; stroke: #4c72b0; stroke-linejoin: miter"/>
     <use xlink:href="#m98eaaeb7d8" x="390.813285" y="27.79859" style="fill: #4c72b0; stroke: #4c72b0; stroke-linejoin: miter"/>
    </g>
   </g>
   <g id="line2d_53">
    <defs>
     <path id="m45c59dbef3" d="M 4.5 -3 
L 0 0 
L 4.5 3 
" style="stroke: #dd8452; stroke-linejoin: miter"/>
    </defs>
    <g clip-path="url(#p35a14f3cc8)">
     <use xlink:href="#m45c59dbef3" x="80.367985" y="216.993148" style="fill: #dd8452; stroke: #dd8452; stroke-linejoin: miter"/>
     <use xlink:href="#m45c59dbef3" x="216.310226" y="181.37446" style="fill: #dd8452; stroke: #dd8452; stroke-linejoin: miter"/>
     <use xlink:href="#m45c59dbef3" x="352.252466" y="67.733224" style="fill: #dd8452; stroke: #dd8452; stroke-linejoin: miter"/>
     <use xlink:href="#m45c59dbef3" x="393.175159" y="27.79867" style="fill: #dd8452; stroke: #dd8452; stroke-linejoin: miter"/>
    </g>
   </g>
   <g id="patch_3">
    <path d="M 56.745781 273.312 
L 56.745781 7.2 
" style="fill: none; stroke: #262626; stroke-width: 1.25; stroke-linejoin: miter; stroke-linecap: square"/>
   </g>
   <g id="patch_4">
    <path d="M 413.865781 273.312 
L 413.865781 7.2 
" style="fill: none; stroke: #262626; stroke-width: 1.25; stroke-linejoin: miter; stroke-linecap: square"/>
   </g>
   <g id="patch_5">
    <path d="M 56.745781 273.312 
L 413.865781 273.312 
" style="fill: none; stroke: #262626; stroke-width: 1.25; stroke-linejoin: miter; stroke-linecap: square"/>
   </g>
   <g id="patch_6">
    <path d="M 56.745781 7.2 
L 413.865781 7.2 
" style="fill: none; stroke: #262626; stroke-width: 1.25; stroke-linejoin: miter; stroke-linecap: square"/>
   </g>
   <g id="legend_1">
    <g id="patch_7">
     <path d="M 64.445781 78.772188 
L 237.195625 78.772188 
Q 239.395625 78.772188 239.395625 76.572188 
L 239.395625 14.9 
Q 239.395625 12.7 237.195625 12.7 
L 64.445781 12.7 
Q 62.245781 12.7 62.245781 14.9 
L 62.245781 76.572188 
Q 62.245781 78.772188 64.445781 78.772188 
z
" style="fill: #ffffff; opacity: 0.8; stroke: #cccccc; stroke-linejoin: miter"/>
    </g>
    <g id="line2d_54">
     <path d="M 66.645781 21.123594 
L 77.645781 21.123594 
L 88.645781 21.123594 
" style="fill: none; stroke: #1a1a1a; stroke-width: 1.5; stroke-linecap: round"/>
    </g>
    <g id="text_13">
     <!-- true expectation -->
     <g style="fill: #262626" transform="translate(97.445781 24.973594) scale(0.11 -0.11)">
      <defs>
       <path id="ArialMT-78" d="M 47 0 
L 1259 1725 
L 138 3319 
L 841 3319 
L 1350 2541 
Q 1494 2319 1581 2169 
Q 1719 2375 1834 2534 
L 2394 3319 
L 3066 3319 
L 1919 1756 
L 3153 0 
L 2463 0 
L 1781 1031 
L 1600 1309 
L 728 0 
L 47 0 
z
" transform="scale(0.015625)"/>
       <path id="ArialMT-70" d="M 422 -1272 
L 422 3319 
L 934 3319 
L 934 2888 
Q 1116 3141 1344 3267 
Q 1572 3394 1897 3394 
Q 2322 3394 2647 3175 
Q 2972 2956 3137 2557 
Q 3303 2159 3303 1684 
Q 3303 1175 3120 767 
Q 2938 359 2589 142 
Q 2241 -75 1856 -75 
Q 1575 -75 1351 44 
Q 1128 163 984 344 
L 984 -1272 
L 422 -1272 
z
M 931 1641 
Q 931 1000 1190 694 
Q 1450 388 1819 388 
Q 2194 388 2461 705 
Q 2728 1022 2728 1688 
Q 2728 2322 2467 2637 
Q 2206 2953 1844 2953 
Q 1484 2953 1207 2617 
Q 931 2281 931 1641 
z
" transform="scale(0.015625)"/>
      </defs>
      <use xlink:href="#ArialMT-74"/>
      <use xlink:href="#ArialMT-72" transform="translate(27.783203 0)"/>
      <use xlink:href="#ArialMT-75" transform="translate(61.083984 0)"/>
      <use xlink:href="#ArialMT-65" transform="translate(116.699219 0)"/>
      <use xlink:href="#ArialMT-20" transform="translate(172.314453 0)"/>
      <use xlink:href="#ArialMT-65" transform="translate(200.097656 0)"/>
      <use xlink:href="#ArialMT-78" transform="translate(255.712891 0)"/>
      <use xlink:href="#ArialMT-70" transform="translate(305.712891 0)"/>
      <use xlink:href="#ArialMT-65" transform="translate(361.328125 0)"/>
      <use xlink:href="#ArialMT-63" transform="translate(416.943359 0)"/>
      <use xlink:href="#ArialMT-74" transform="translate(466.943359 0)"/>
      <use xlink:href="#ArialMT-61" transform="translate(494.726562 0)"/>
      <use xlink:href="#ArialMT-74" transform="translate(550.341797 0)"/>
      <use xlink:href="#ArialMT-69" transform="translate(578.125 0)"/>
      <use xlink:href="#ArialMT-6f" transform="translate(600.341797 0)"/>
      <use xlink:href="#ArialMT-6e" transform="translate(655.957031 0)"/>
     </g>
    </g>
    <g id="PathCollection_2">
     <g>
      <use xlink:href="#m1898dd4ddb" x="77.645781" y="37.645938" style="fill: #c44e52; stroke: #c44e52; stroke-width: 1.5"/>
     </g>
    </g>
    <g id="text_14">
     <!-- empirical expectation -->
     <g style="fill: #262626" transform="translate(97.445781 40.533438) scale(0.11 -0.11)">
      <use xlink:href="#ArialMT-65"/>
      <use xlink:href="#ArialMT-6d" transform="translate(55.615234 0)"/>
      <use xlink:href="#ArialMT-70" transform="translate(138.916016 0)"/>
      <use xlink:href="#ArialMT-69" transform="translate(194.53125 0)"/>
      <use xlink:href="#ArialMT-72" transform="translate(216.748047 0)"/>
      <use xlink:href="#ArialMT-69" transform="translate(250.048828 0)"/>
      <use xlink:href="#ArialMT-63" transform="translate(272.265625 0)"/>
      <use xlink:href="#ArialMT-61" transform="translate(322.265625 0)"/>
      <use xlink:href="#ArialMT-6c" transform="translate(377.880859 0)"/>
      <use xlink:href="#ArialMT-20" transform="translate(400.097656 0)"/>
      <use xlink:href="#ArialMT-65" transform="translate(427.880859 0)"/>
      <use xlink:href="#ArialMT-78" transform="translate(483.496094 0)"/>
      <use xlink:href="#ArialMT-70" transform="translate(533.496094 0)"/>
      <use xlink:href="#ArialMT-65" transform="translate(589.111328 0)"/>
      <use xlink:href="#ArialMT-63" transform="translate(644.726562 0)"/>
      <use xlink:href="#ArialMT-74" transform="translate(694.726562 0)"/>
      <use xlink:href="#ArialMT-61" transform="translate(722.509766 0)"/>
      <use xlink:href="#ArialMT-74" transform="translate(778.125 0)"/>
      <use xlink:href="#ArialMT-69" transform="translate(805.908203 0)"/>
      <use xlink:href="#ArialMT-6f" transform="translate(828.125 0)"/>
      <use xlink:href="#ArialMT-6e" transform="translate(883.740234 0)"/>
     </g>
    </g>
    <g id="LineCollection_3">
     <path d="M 77.645781 57.884219 
L 77.645781 46.884219 
" style="fill: none; stroke: #4c72b0; stroke-width: 1.5"/>
    </g>
    <g id="line2d_55">
     <g>
      <use xlink:href="#m09322b022f" x="77.645781" y="57.884219" style="fill: #4c72b0; stroke: #4c72b0"/>
     </g>
    </g>
    <g id="line2d_56">
     <g>
      <use xlink:href="#m09322b022f" x="77.645781" y="46.884219" style="fill: #4c72b0; stroke: #4c72b0"/>
     </g>
    </g>
    <g id="line2d_57"/>
    <g id="line2d_58">
     <g>
      <use xlink:href="#m98eaaeb7d8" x="77.645781" y="52.384219" style="fill: #4c72b0; stroke: #4c72b0; stroke-linejoin: miter"/>
     </g>
    </g>
    <g id="text_15">
     <!-- Q pixels (1-99th percentiles) -->
     <g style="fill: #262626" transform="translate(97.445781 56.234219) scale(0.11 -0.11)">
      <defs>
       <path id="ArialMT-51" d="M 3966 491 
Q 4388 200 4744 66 
L 4566 -356 
Q 4072 -178 3581 206 
Q 3072 -78 2456 -78 
Q 1834 -78 1328 222 
Q 822 522 548 1065 
Q 275 1609 275 2291 
Q 275 2969 550 3525 
Q 825 4081 1333 4372 
Q 1841 4663 2469 4663 
Q 3103 4663 3612 4361 
Q 4122 4059 4389 3517 
Q 4656 2975 4656 2294 
Q 4656 1728 4484 1276 
Q 4313 825 3966 491 
z
M 2631 1266 
Q 3156 1119 3497 828 
Q 4031 1316 4031 2294 
Q 4031 2850 3842 3265 
Q 3653 3681 3289 3911 
Q 2925 4141 2472 4141 
Q 1794 4141 1347 3677 
Q 900 3213 900 2291 
Q 900 1397 1342 919 
Q 1784 441 2472 441 
Q 2797 441 3084 563 
Q 2800 747 2484 825 
L 2631 1266 
z
" transform="scale(0.015625)"/>
       <path id="ArialMT-28" d="M 1497 -1347 
Q 1031 -759 709 28 
Q 388 816 388 1659 
Q 388 2403 628 3084 
Q 909 3875 1497 4659 
L 1900 4659 
Q 1522 4009 1400 3731 
Q 1209 3300 1100 2831 
Q 966 2247 966 1656 
Q 966 153 1900 -1347 
L 1497 -1347 
z
" transform="scale(0.015625)"/>
       <path id="ArialMT-2d" d="M 203 1375 
L 203 1941 
L 1931 1941 
L 1931 1375 
L 203 1375 
z
" transform="scale(0.015625)"/>
       <path id="ArialMT-39" d="M 350 1059 
L 891 1109 
Q 959 728 1153 556 
Q 1347 384 1650 384 
Q 1909 384 2104 503 
Q 2300 622 2425 820 
Q 2550 1019 2634 1356 
Q 2719 1694 2719 2044 
Q 2719 2081 2716 2156 
Q 2547 1888 2255 1720 
Q 1963 1553 1622 1553 
Q 1053 1553 659 1965 
Q 266 2378 266 3053 
Q 266 3750 677 4175 
Q 1088 4600 1706 4600 
Q 2153 4600 2523 4359 
Q 2894 4119 3086 3673 
Q 3278 3228 3278 2384 
Q 3278 1506 3087 986 
Q 2897 466 2520 194 
Q 2144 -78 1638 -78 
Q 1100 -78 759 220 
Q 419 519 350 1059 
z
M 2653 3081 
Q 2653 3566 2395 3850 
Q 2138 4134 1775 4134 
Q 1400 4134 1122 3828 
Q 844 3522 844 3034 
Q 844 2597 1108 2323 
Q 1372 2050 1759 2050 
Q 2150 2050 2401 2323 
Q 2653 2597 2653 3081 
z
" transform="scale(0.015625)"/>
       <path id="ArialMT-68" d="M 422 0 
L 422 4581 
L 984 4581 
L 984 2938 
Q 1378 3394 1978 3394 
Q 2347 3394 2619 3248 
Q 2891 3103 3008 2847 
Q 3125 2591 3125 2103 
L 3125 0 
L 2563 0 
L 2563 2103 
Q 2563 2525 2380 2717 
Q 2197 2909 1863 2909 
Q 1613 2909 1392 2779 
Q 1172 2650 1078 2428 
Q 984 2206 984 1816 
L 984 0 
L 422 0 
z
" transform="scale(0.015625)"/>
       <path id="ArialMT-29" d="M 791 -1347 
L 388 -1347 
Q 1322 153 1322 1656 
Q 1322 2244 1188 2822 
Q 1081 3291 891 3722 
Q 769 4003 388 4659 
L 791 4659 
Q 1378 3875 1659 3084 
Q 1900 2403 1900 1659 
Q 1900 816 1576 28 
Q 1253 -759 791 -1347 
z
" transform="scale(0.015625)"/>
      </defs>
      <use xlink:href="#ArialMT-51"/>
      <use xlink:href="#ArialMT-20" transform="translate(77.783203 0)"/>
      <use xlink:href="#ArialMT-70" transform="translate(105.566406 0)"/>
      <use xlink:href="#ArialMT-69" transform="translate(161.181641 0)"/>
      <use xlink:href="#ArialMT-78" transform="translate(183.398438 0)"/>
      <use xlink:href="#ArialMT-65" transform="translate(233.398438 0)"/>
      <use xlink:href="#ArialMT-6c" transform="translate(289.013672 0)"/>
      <use xlink:href="#ArialMT-73" transform="translate(311.230469 0)"/>
      <use xlink:href="#ArialMT-20" transform="translate(361.230469 0)"/>
      <use xlink:href="#ArialMT-28" transform="translate(389.013672 0)"/>
      <use xlink:href="#ArialMT-31" transform="translate(422.314453 0)"/>
      <use xlink:href="#ArialMT-2d" transform="translate(477.929688 0)"/>
      <use xlink:href="#ArialMT-39" transform="translate(511.230469 0)"/>
      <use xlink:href="#ArialMT-39" transform="translate(566.845703 0)"/>
      <use xlink:href="#ArialMT-74" transform="translate(622.460938 0)"/>
      <use xlink:href="#ArialMT-68" transform="translate(650.244141 0)"/>
      <use xlink:href="#ArialMT-20" transform="translate(705.859375 0)"/>
      <use xlink:href="#ArialMT-70" transform="translate(733.642578 0)"/>
      <use xlink:href="#ArialMT-65" transform="translate(789.257812 0)"/>
      <use xlink:href="#ArialMT-72" transform="translate(844.873047 0)"/>
      <use xlink:href="#ArialMT-63" transform="translate(878.173828 0)"/>
      <use xlink:href="#ArialMT-65" transform="translate(928.173828 0)"/>
      <use xlink:href="#ArialMT-6e" transform="translate(983.789062 0)"/>
      <use xlink:href="#ArialMT-74" transform="translate(1039.404297 0)"/>
      <use xlink:href="#ArialMT-69" transform="translate(1067.1875 0)"/>
      <use xlink:href="#ArialMT-6c" transform="translate(1089.404297 0)"/>
      <use xlink:href="#ArialMT-65" transform="translate(1111.621094 0)"/>
      <use xlink:href="#ArialMT-73" transform="translate(1167.236328 0)"/>
      <use xlink:href="#ArialMT-29" transform="translate(1217.236328 0)"/>
     </g>
    </g>
    <g id="LineCollection_4">
     <path d="M 77.645781 73.707031 
L 77.645781 62.707031 
" style="fill: none; stroke: #dd8452; stroke-width: 1.5"/>
    </g>
    <g id="line2d_59">
     <g>
      <use xlink:href="#ma500de775a" x="77.645781" y="73.707031" style="fill: #dd8452; stroke: #dd8452"/>
     </g>
    </g>
    <g id="line2d_60">
     <g>
      <use xlink:href="#ma500de775a" x="77.645781" y="62.707031" style="fill: #dd8452; stroke: #dd8452"/>
     </g>
    </g>
    <g id="line2d_61"/>
    <g id="line2d_62">
     <g>
      <use xlink:href="#m45c59dbef3" x="77.645781" y="68.207031" style="fill: #dd8452; stroke: #dd8452; stroke-linejoin: miter"/>
     </g>
    </g>
    <g id="text_16">
     <!-- U pixels (1-99th percentiles) -->
     <g style="fill: #262626" transform="translate(97.445781 72.057031) scale(0.11 -0.11)">
      <defs>
       <path id="ArialMT-55" d="M 3500 4581 
L 4106 4581 
L 4106 1934 
Q 4106 1244 3950 837 
Q 3794 431 3386 176 
Q 2978 -78 2316 -78 
Q 1672 -78 1262 144 
Q 853 366 678 786 
Q 503 1206 503 1934 
L 503 4581 
L 1109 4581 
L 1109 1938 
Q 1109 1341 1220 1058 
Q 1331 775 1601 622 
Q 1872 469 2263 469 
Q 2931 469 3215 772 
Q 3500 1075 3500 1938 
L 3500 4581 
z
" transform="scale(0.015625)"/>
      </defs>
      <use xlink:href="#ArialMT-55"/>
      <use xlink:href="#ArialMT-20" transform="translate(72.216797 0)"/>
      <use xlink:href="#ArialMT-70" transform="translate(100 0)"/>
      <use xlink:href="#ArialMT-69" transform="translate(155.615234 0)"/>
      <use xlink:href="#ArialMT-78" transform="translate(177.832031 0)"/>
      <use xlink:href="#ArialMT-65" transform="translate(227.832031 0)"/>
      <use xlink:href="#ArialMT-6c" transform="translate(283.447266 0)"/>
      <use xlink:href="#ArialMT-73" transform="translate(305.664062 0)"/>
      <use xlink:href="#ArialMT-20" transform="translate(355.664062 0)"/>
      <use xlink:href="#ArialMT-28" transform="translate(383.447266 0)"/>
      <use xlink:href="#ArialMT-31" transform="translate(416.748047 0)"/>
      <use xlink:href="#ArialMT-2d" transform="translate(472.363281 0)"/>
      <use xlink:href="#ArialMT-39" transform="translate(505.664062 0)"/>
      <use xlink:href="#ArialMT-39" transform="translate(561.279297 0)"/>
      <use xlink:href="#ArialMT-74" transform="translate(616.894531 0)"/>
      <use xlink:href="#ArialMT-68" transform="translate(644.677734 0)"/>
      <use xlink:href="#ArialMT-20" transform="translate(700.292969 0)"/>
      <use xlink:href="#ArialMT-70" transform="translate(728.076172 0)"/>
      <use xlink:href="#ArialMT-65" transform="translate(783.691406 0)"/>
      <use xlink:href="#ArialMT-72" transform="translate(839.306641 0)"/>
      <use xlink:href="#ArialMT-63" transform="translate(872.607422 0)"/>
      <use xlink:href="#ArialMT-65" transform="translate(922.607422 0)"/>
      <use xlink:href="#ArialMT-6e" transform="translate(978.222656 0)"/>
      <use xlink:href="#ArialMT-74" transform="translate(1033.837891 0)"/>
      <use xlink:href="#ArialMT-69" transform="translate(1061.621094 0)"/>
      <use xlink:href="#ArialMT-6c" transform="translate(1083.837891 0)"/>
      <use xlink:href="#ArialMT-65" transform="translate(1106.054688 0)"/>
      <use xlink:href="#ArialMT-73" transform="translate(1161.669922 0)"/>
      <use xlink:href="#ArialMT-29" transform="translate(1211.669922 0)"/>
     </g>
    </g>
   </g>
  </g>
 </g>
 <defs>
  <clipPath id="p35a14f3cc8">
   <rect x="56.745781" y="7.2" width="357.12" height="266.112"/>
  </clipPath>
 </defs>
</svg>
